<?xml version="1.0" standalone="no"?>
<!DOCTYPE svg PUBLIC "-//W3C//DTD SVG 20010904//EN"
 "http://www.w3.org/TR/2001/REC-SVG-20010904/DTD/svg10.dtd">
<svg version="1.0" xmlns="http://www.w3.org/2000/svg"
 width="640.000000pt" height="640.000000pt" viewBox="0 0 640.000000 640.000000"
 preserveAspectRatio="xMidYMid meet">
<metadata>
Created by potrace 1.14, written by Peter Selinger 2001-2017
</metadata>
<g transform="translate(0.000000,640.000000) scale(0.100000,-0.100000)"
fill="#000000" stroke="none">
<path d="M0 3200 l0 -3200 3200 0 3200 0 0 3200 0 3200 -3200 0 -3200 0 0
-3200z m3149 2285 c85 -54 197 -143 291 -232 43 -40 97 -78 160 -110 98 -50
140 -92 140 -139 0 -15 13 -32 38 -50 43 -32 101 -94 102 -110 0 -6 12 -21 26
-35 44 -41 46 -47 69 -199 6 -34 18 -56 50 -90 45 -47 85 -117 85 -147 0 -30
-88 -169 -123 -196 -18 -13 -52 -34 -77 -47 -25 -12 -56 -31 -69 -41 -15 -12
-40 -19 -70 -19 -72 0 -93 -16 -106 -80 -22 -107 -58 -151 -172 -209 -68 -34
-77 -55 -69 -168 4 -52 16 -130 28 -172 11 -42 24 -94 29 -116 4 -22 12 -51
17 -66 6 -14 18 -68 27 -120 14 -80 37 -165 75 -279 5 -14 18 -59 31 -100 12
-41 25 -79 29 -83 16 -18 47 5 79 58 34 55 102 125 122 125 6 0 34 11 62 25
28 14 96 44 151 67 56 23 140 63 187 90 48 26 92 48 98 48 5 0 26 14 45 30 37
33 161 94 214 105 45 9 59 41 45 102 -18 77 -1 91 57 48 53 -39 88 -34 158 26
34 28 65 64 71 80 6 17 17 29 28 29 10 0 28 3 39 6 25 6 51 -17 80 -71 18 -34
18 -36 0 -65 -18 -32 -17 -84 5 -140 5 -14 16 -75 23 -135 12 -96 12 -116 -1
-155 -24 -71 -50 -108 -84 -115 -16 -4 -53 -21 -82 -39 -30 -17 -78 -40 -109
-50 -51 -18 -58 -18 -94 -4 -51 21 -53 49 -4 61 19 4 51 12 70 17 23 6 64 37
118 87 77 74 82 80 82 120 0 46 -50 180 -71 194 -42 26 -154 -13 -206 -71 -25
-28 -28 -29 -49 -15 -32 21 -43 19 -148 -16 -86 -29 -169 -75 -227 -126 -14
-13 -57 -39 -95 -57 -38 -18 -91 -50 -119 -70 -27 -20 -78 -53 -112 -74 -85
-51 -119 -78 -182 -142 -86 -88 -125 -142 -155 -214 -15 -35 -37 -46 -61 -28
-6 4 -23 32 -39 62 -28 53 -34 78 -56 220 -5 36 -16 92 -24 125 -17 75 -44
196 -56 255 -33 160 -111 415 -145 467 -13 22 -28 33 -44 33 -47 0 -238 -170
-293 -261 -18 -30 -74 -114 -123 -187 -50 -73 -102 -152 -117 -174 -15 -23
-41 -54 -56 -70 -16 -15 -32 -42 -36 -59 -9 -46 -6 -186 5 -244 50 -266 49
-461 -4 -588 -9 -21 -23 -68 -32 -105 -9 -37 -20 -83 -25 -102 -23 -89 -41
-248 -43 -380 l-2 -145 42 -3 c52 -4 62 -24 23 -52 -34 -24 -85 -113 -94 -165
-6 -33 -4 -39 28 -68 34 -32 35 -34 29 -92 -7 -76 -14 -84 -63 -78 -25 4 -46
1 -55 -7 -23 -19 -43 -5 -47 32 l-3 33 -62 3 c-52 2 -71 -2 -120 -27 -105 -53
-131 -55 -204 -23 -35 16 -78 41 -95 55 -18 15 -36 27 -42 27 -8 0 -134 146
-177 206 -15 21 11 42 33 26 9 -7 34 -21 55 -31 36 -17 117 -95 117 -113 0 -4
15 -17 33 -28 44 -27 143 -27 222 0 170 58 172 60 162 195 -5 76 -4 86 13 95
10 5 28 10 40 10 22 0 39 31 46 90 6 47 43 255 55 308 5 23 9 64 9 91 0 27 6
84 14 127 8 44 20 174 27 291 11 197 11 214 -5 238 -10 15 -27 52 -37 83 -11
32 -37 82 -58 112 -27 40 -41 73 -50 123 -6 37 -9 72 -6 78 4 5 32 7 69 3 l63
-6 27 34 c14 20 33 57 41 84 11 35 36 72 86 129 39 44 80 98 91 120 11 22 44
69 73 105 76 96 145 200 145 219 0 9 25 66 56 126 54 104 56 112 58 194 2 64
-1 95 -14 121 -10 19 -20 47 -24 62 -8 37 -44 45 -99 24 -24 -9 -58 -16 -78
-16 -39 0 -158 53 -204 92 -16 13 -56 41 -88 62 -67 45 -66 44 -87 120 -15 55
-20 61 -56 73 -21 8 -60 18 -86 23 -42 8 -59 21 -165 128 -65 65 -133 127
-151 137 -17 11 -34 26 -37 35 -3 8 -18 29 -33 45 -48 51 -53 67 -32 100 27
42 35 126 20 231 -11 81 -10 94 4 116 22 33 197 141 268 165 34 12 75 36 101
60 49 45 107 63 203 63 34 0 71 8 99 21 30 14 56 19 77 16 18 -3 52 -9 75 -12
33 -6 49 -3 70 11 15 10 59 30 97 44 94 36 146 29 245 -35z"/>
<path d="M2955 5456 c-48 -11 -50 -14 -53 -49 -3 -34 -1 -37 23 -37 14 0 49
10 76 21 44 19 50 25 47 48 -4 31 -21 34 -93 17z"/>
<path d="M3098 5383 c-10 -2 -21 -15 -24 -29 -8 -33 -81 -94 -113 -94 -49 -1
-61 -20 -61 -98 0 -63 -3 -73 -25 -90 -14 -11 -25 -27 -25 -35 0 -46 113 -65
150 -25 11 12 20 25 20 30 0 13 30 9 31 -4 1 -7 1 -32 -1 -55 -2 -40 0 -43 24
-43 32 0 46 25 46 82 0 53 19 82 71 108 64 33 46 70 -32 70 -26 0 -51 5 -54
10 -3 6 9 25 28 43 22 20 37 46 41 70 11 58 -13 77 -76 60z"/>
<path d="M2665 5333 c-3 -16 -10 -42 -15 -59 -6 -17 -10 -49 -10 -72 0 -50 26
-72 95 -79 70 -8 95 2 95 39 0 30 -1 31 -40 25 -35 -4 -43 -2 -56 19 -23 34
-12 52 33 56 29 2 41 9 53 30 21 39 3 57 -43 40 -29 -11 -33 -10 -46 8 -21 31
-59 26 -66 -7z"/>
<path d="M3227 5313 c-4 -3 -7 -21 -7 -39 0 -37 25 -58 63 -52 33 5 36 56 5
80 -24 18 -50 23 -61 11z"/>
<path d="M2523 5293 c-29 -11 -1 -83 32 -83 17 0 24 8 28 30 4 16 4 37 1 45
-6 15 -36 19 -61 8z"/>
<path d="M3330 5161 c-23 -46 -54 -71 -88 -71 -40 0 -62 -18 -62 -51 0 -29 2
-30 37 -27 21 1 38 -2 40 -9 4 -12 -43 -53 -62 -53 -6 0 -19 -8 -28 -18 -8 -9
-41 -30 -72 -46 -65 -35 -71 -49 -59 -144 l9 -67 53 -3 c66 -4 82 8 82 62 0
48 22 86 51 86 15 0 19 -7 19 -34 l0 -33 82 -6 c92 -7 98 -4 98 53 0 44 -8 57
-43 65 -32 8 -45 31 -29 47 7 7 31 14 54 17 37 5 43 10 46 32 2 14 -4 31 -12
39 -22 17 -20 50 2 50 10 0 23 -5 29 -11 6 -6 23 -9 39 -7 24 2 29 8 29 29 0
21 -15 38 -75 83 -91 68 -112 70 -140 17z"/>
<path d="M2130 5181 c-47 -10 -60 -18 -60 -42 0 -12 7 -19 20 -19 11 0 25 -9
32 -20 17 -28 91 -70 122 -70 14 0 31 7 38 16 7 9 23 27 36 40 12 14 22 35 22
47 0 19 -8 25 -52 36 -74 17 -117 21 -158 12z"/>
<path d="M2457 5124 c-18 -18 -4 -52 39 -97 26 -26 57 -50 70 -53 28 -7 117
44 122 70 2 9 -11 30 -28 46 -27 25 -40 30 -85 30 -29 0 -65 3 -81 6 -16 3
-32 2 -37 -2z"/>
<path d="M2365 4983 c15 -127 4 -153 -62 -153 -39 0 -53 -21 -53 -83 0 -48 17
-71 47 -65 13 2 18 13 19 36 0 42 15 57 42 43 11 -6 43 -11 71 -11 59 0 63 5
81 96 14 71 7 92 -58 162 -28 30 -48 42 -67 42 l-27 0 7 -67z"/>
<path d="M3596 5004 c-9 -24 -7 -54 3 -54 6 0 18 -13 28 -30 11 -19 25 -30 40
-30 19 0 23 5 23 34 0 61 -76 126 -94 80z"/>
<path d="M2080 4985 c-15 -16 -28 -48 -36 -92 -20 -104 -18 -146 9 -169 41
-37 78 -55 105 -52 26 3 27 5 35 92 7 76 6 91 -8 98 -8 5 -27 19 -41 31 -22
19 -24 25 -12 34 11 10 23 6 59 -18 34 -23 53 -29 84 -27 37 3 40 5 43 36 2
17 2 32 0 32 -2 0 -43 14 -92 30 -108 36 -116 37 -146 5z"/>
<path d="M2737 5003 c-4 -3 -7 -19 -7 -33 0 -36 -16 -48 -69 -52 -41 -3 -46
-6 -72 -53 -40 -71 -40 -144 0 -207 16 -25 31 -54 33 -64 3 -19 47 -33 49 -17
7 54 6 133 -2 155 -11 27 -1 57 28 86 17 17 49 11 44 -9 -2 -8 -5 -48 -6 -89
-1 -41 -5 -96 -9 -122 -8 -46 -7 -47 19 -54 42 -10 53 13 54 111 1 97 6 115
31 115 22 0 30 -19 30 -74 0 -47 13 -66 47 -66 45 0 63 32 63 116 0 64 4 81
25 112 14 20 25 42 25 49 0 20 -36 33 -93 33 -41 0 -58 -5 -72 -20 -31 -34
-48 -26 -40 20 5 27 3 46 -5 55 -13 15 -61 21 -73 8z"/>
<path d="M3498 4913 c-23 -4 -28 -10 -28 -32 0 -15 5 -32 11 -38 18 -18 2
-121 -23 -141 -55 -45 -60 -55 -54 -104 3 -26 1 -50 -3 -53 -5 -2 -37 5 -72
17 -54 18 -69 20 -106 10 -24 -7 -61 -12 -84 -12 -53 0 -89 -20 -137 -76 l-40
-47 -78 -2 c-101 -3 -187 -21 -247 -52 -51 -25 -67 -51 -67 -109 0 -28 4 -34
21 -34 12 0 41 18 64 39 24 22 60 44 82 50 75 19 169 34 208 33 22 -1 60 8 85
20 27 13 63 21 89 21 65 -2 94 12 89 42 -7 37 14 50 51 31 20 -11 31 -25 33
-43 4 -35 38 -53 100 -53 57 0 67 -12 31 -39 -53 -40 -54 -41 -51 -89 3 -41 6
-47 26 -50 13 -2 36 2 52 8 28 11 60 -1 154 -58 28 -17 81 -8 121 19 62 43 68
82 18 114 -23 15 -34 16 -107 4 -44 -7 -89 -16 -98 -21 -18 -9 -52 17 -43 32
11 18 94 50 131 50 43 0 58 7 67 32 5 14 10 15 41 4 20 -7 39 -15 42 -19 4 -4
20 -7 34 -7 21 0 31 7 40 31 19 45 4 63 -56 69 l-49 5 -3 40 c-3 45 -23 65
-63 65 -20 0 -32 -9 -48 -35 -24 -41 -51 -47 -51 -11 0 14 -11 38 -25 54 -40
48 -28 66 29 41 13 -6 36 -9 50 -5 53 13 24 90 -49 132 -20 11 -20 12 -2 44
21 35 17 89 -9 115 -15 15 -24 16 -76 8z"/>
<path d="M3690 4832 c-19 -9 -36 -24 -38 -33 -1 -9 15 -45 36 -80 33 -53 44
-65 69 -67 36 -4 39 2 48 90 6 59 5 68 -14 87 -26 26 -55 27 -101 3z"/>
<path d="M2354 4676 c-15 -38 96 -106 151 -92 20 5 25 12 25 40 0 18 -6 38
-12 44 -7 6 -46 14 -85 17 -63 7 -74 5 -79 -9z"/>
<path d="M3821 4626 c-6 -7 -14 -34 -17 -59 -6 -43 -5 -46 19 -52 14 -4 36 -5
48 -3 21 3 24 8 22 45 -1 23 -7 51 -13 62 -12 24 -42 27 -59 7z"/>
<path d="M2202 4598 c-21 -21 -13 -59 19 -89 36 -34 89 -40 89 -11 0 9 3 27 6
39 13 47 -79 96 -114 61z"/>
<path d="M2470 4513 c-15 -11 -43 -18 -70 -18 -40 0 -45 -3 -48 -24 -5 -35 22
-51 87 -51 65 0 100 15 120 52 13 22 13 29 2 42 -18 21 -60 20 -91 -1z"/>
<path d="M3071 4341 c-49 -7 -72 -30 -53 -54 14 -16 142 -40 166 -31 22 8 20
57 -2 77 -19 17 -34 18 -111 8z"/>
<path d="M3263 4314 c-10 -26 10 -69 33 -72 17 -2 22 4 27 34 4 20 4 41 1 46
-9 14 -54 9 -61 -8z"/>
<path d="M3937 4324 c-4 -4 -7 -18 -7 -31 0 -20 5 -24 23 -21 16 2 22 10 22
28 0 24 -23 39 -38 24z"/>
<path d="M2835 4295 c-27 -8 -64 -14 -82 -15 -41 0 -85 -44 -81 -80 4 -32 30
-37 65 -12 32 22 109 49 171 58 35 5 42 10 42 29 0 37 -32 43 -115 20z"/>
<path d="M3034 4185 c-9 -22 3 -45 23 -45 9 0 37 -7 60 -16 53 -21 93 -8 93
29 0 38 -19 47 -97 47 -56 0 -75 -4 -79 -15z"/>
<path d="M3260 4179 c-7 -11 -9 -32 -6 -45 6 -22 11 -25 49 -22 51 4 60 27 26
64 -28 30 -55 31 -69 3z"/>
<path d="M2832 4179 c-65 -13 -103 -39 -100 -69 3 -23 8 -25 58 -28 105 -6
180 20 180 63 0 40 -47 52 -138 34z"/>
<path d="M3401 4058 c-4 -13 -9 -44 -10 -70 -1 -45 0 -48 24 -48 31 0 55 43
55 100 0 38 -2 40 -30 40 -22 0 -33 -6 -39 -22z"/>
<path d="M3225 3994 c-16 -18 -25 -39 -25 -60 0 -31 3 -34 30 -34 17 0 49 11
71 26 35 22 40 29 37 57 -3 30 -6 32 -45 35 -36 3 -47 -1 -68 -24z"/>
</g>
</svg>
